<svg width="19" height="18" viewBox="0 0 19 18" fill="none" xmlns="http://www.w3.org/2000/svg">
<path d="M4.1665 4.83333H15.6582C15.891 4.83334 16.1213 4.88214 16.3341 4.97659C16.547 5.07103 16.7376 5.20903 16.8939 5.38168C17.0501 5.55433 17.1685 5.7578 17.2412 5.97898C17.314 6.20016 17.3397 6.43414 17.3165 6.66583L16.8165 11.6658C16.7754 12.0771 16.5829 12.4584 16.2765 12.7357C15.97 13.0131 15.5715 13.1667 15.1582 13.1667H7.19984C6.8144 13.1668 6.44082 13.0334 6.14271 12.789C5.8446 12.5447 5.64038 12.2046 5.56484 11.8267L4.1665 4.83333ZM4.1665 4.83333L3.4915 2.13083C3.44636 1.95063 3.3423 1.79067 3.19584 1.67638C3.04939 1.56209 2.86894 1.5 2.68317 1.5H1.6665M6.6665 16.5H8.33317M13.3332 16.5H14.9998" stroke="#D0D5B9" stroke-width="2" stroke-linecap="round" stroke-linejoin="round"/>
</svg>
