<svg width="10" height="9" viewBox="0 0 10 9" fill="none" xmlns="http://www.w3.org/2000/svg">
<path d="M0.50005 3.36862C0.49881 3.44464 0.520704 3.51924 0.562829 3.58253C0.604954 3.64581 0.665321 3.6948 0.735925 3.723L4.3363 5.16337L5.77668 8.76412C5.8045 8.83377 5.85257 8.89347 5.91467 8.93552C5.97677 8.97757 6.05005 9.00003 6.12505 9H6.13105C6.207 8.9988 6.2808 8.97457 6.34267 8.93051C6.40455 8.88645 6.45158 8.82463 6.47755 8.75325L9.47755 0.503249C9.50211 0.436134 9.50698 0.363399 9.49158 0.293609C9.47619 0.22382 9.44117 0.159883 9.39065 0.109328C9.34014 0.0587735 9.27623 0.0237063 9.20645 0.00825682C9.13667 -0.00719271 9.06394 -0.00238127 8.9968 0.0221244L0.7468 3.02212C0.675387 3.04816 0.613561 3.09526 0.569501 3.1572C0.525441 3.21914 0.501223 3.293 0.50005 3.369V3.36862Z" fill="#D0D5B9"/>
</svg>
