<svg width="22" height="16" viewBox="0 0 22 16" fill="none" xmlns="http://www.w3.org/2000/svg">
<path d="M21.5422 2.96571C21.4176 2.52134 21.175 2.11903 20.84 1.80155C20.4956 1.4743 20.0735 1.24021 19.6135 1.12138C17.892 0.667631 10.9951 0.667632 10.9951 0.667632C8.11978 0.634918 5.2452 0.7788 2.38756 1.09846C1.92757 1.22608 1.50625 1.46539 1.16106 1.79513C0.821898 2.12146 0.576232 2.52388 0.447899 2.9648C0.139618 4.62556 -0.0101666 6.31186 0.000565751 8.00096C-0.0104342 9.68854 0.138982 11.3743 0.447899 13.0371C0.573482 13.4762 0.818232 13.8768 1.15831 14.2004C1.4984 14.524 1.9219 14.7577 2.38756 14.8815C4.13198 15.3343 10.9951 15.3343 10.9951 15.3343C13.874 15.367 16.7522 15.2232 19.6135 14.9035C20.0735 14.7846 20.4956 14.5505 20.84 14.2233C21.1792 13.8997 21.4203 13.4973 21.5413 13.0591C21.8576 11.399 22.0114 9.712 22.0005 8.02204C22.0243 6.32493 21.8707 4.62998 21.5422 2.9648V2.96571ZM8.80239 11.1396V4.86321L14.5407 8.00188L8.80239 11.1396Z" fill="white"/>
</svg>
